<svg width="30" height="24" viewBox="0 0 30 24" fill="none" xmlns="http://www.w3.org/2000/svg">
<path d="M2.43665 6.48016V6.82819H2.78468H27.8432H28.1912V6.48016V4.914C28.1912 4.12941 27.8795 3.37696 27.3248 2.82217C26.77 2.26738 26.0175 1.9557 25.2329 1.9557H5.39494C4.61035 1.9557 3.8579 2.26738 3.30311 2.82217C2.74832 3.37696 2.43665 4.12941 2.43665 4.914V6.48016ZM28.1912 8.56836V8.22033H27.8432H2.78468H2.43665V8.56836V18.4874C2.43665 19.2719 2.74832 20.0244 3.30311 20.5792C3.8579 21.134 4.61035 21.4456 5.39494 21.4456H25.2329C26.0175 21.4456 26.77 21.134 27.3248 20.5792C27.8795 20.0244 28.1912 19.2719 28.1912 18.4874V8.56836ZM1.04451 4.914C1.04451 3.76019 1.50285 2.65364 2.31872 1.83778C3.13458 1.02191 4.24113 0.563565 5.39494 0.563565H25.2329C26.3867 0.563565 27.4933 1.02191 28.3091 1.83778C29.125 2.65364 29.5834 3.76019 29.5834 4.914V18.4874C29.5834 19.6412 29.125 20.7477 28.3091 21.5636C27.4933 22.3794 26.3867 22.8378 25.2329 22.8378H5.39494C4.24113 22.8378 3.13458 22.3794 2.31872 21.5636C1.50285 20.7477 1.04451 19.6412 1.04451 18.4874V4.914ZM20.5345 15.181H23.6668C23.8514 15.181 24.0284 15.2544 24.159 15.3849C24.2895 15.5154 24.3628 15.6925 24.3628 15.8771C24.3628 16.0617 24.2895 16.2388 24.159 16.3693C24.0284 16.4998 23.8514 16.5732 23.6668 16.5732H20.5345C20.3498 16.5732 20.1728 16.4998 20.0423 16.3693C19.9117 16.2388 19.8384 16.0617 19.8384 15.8771C19.8384 15.6925 19.9117 15.5154 20.0423 15.3849C20.1728 15.2544 20.3498 15.181 20.5345 15.181Z" fill="#4CAF4F" stroke="#4CAF4F" stroke-width="0.696069"/>
</svg>
