<svg width="23" height="22" viewBox="0 0 23 22" fill="none" xmlns="http://www.w3.org/2000/svg">
<mask id="path-1-inside-1_211_2339" fill="white">
<path d="M14.315 10.6106C14.1474 10.6106 13.9918 10.5645 13.8536 10.4904V10.4923C13.8536 10.756 13.7511 11.0037 13.5651 11.1891C13.3791 11.3751 13.1317 11.4776 12.8683 11.4776C12.6982 11.4776 12.5406 11.4304 12.4009 11.3543C12.3868 11.5955 12.2904 11.821 12.1183 11.9932C11.9324 12.1792 11.6849 12.2817 11.4214 12.2817C10.8977 12.2817 10.4725 11.8701 10.4418 11.3541C10.2798 11.4417 10.0966 11.4876 9.9077 11.4755C9.39257 11.4417 8.98917 10.9966 8.98917 10.462V6.03036L8.48454 6.9046C8.29235 7.23897 7.93256 7.44658 7.5452 7.44658C7.35644 7.44658 7.16998 7.39706 7.00484 7.30243C6.7992 7.18321 6.6521 6.99184 6.59093 6.76288C6.52943 6.53379 6.56124 6.29419 6.68014 6.08886C6.6803 6.08886 8.33121 3.22996 8.43192 3.05435C8.4439 3.02795 8.47801 2.95137 8.50703 2.8861C8.53475 2.82378 8.55853 2.75982 8.58132 2.69554C9.07919 1.28998 10.3119 0.416874 11.7987 0.416874C13.7294 0.416874 15.3001 2.12009 15.3001 4.21365L15.3003 9.62514C15.3003 9.88851 15.1979 10.136 15.0121 10.3221C14.8262 10.5081 14.5787 10.6106 14.315 10.6106L14.315 10.6106ZM11.7987 0.940417C10.5212 0.940417 9.50297 1.66201 9.0748 2.87063C9.04741 2.94737 9.01888 3.02412 8.98558 3.0989C8.88899 3.31554 8.88899 3.31554 8.86177 3.34669L8.85816 3.34358C8.72336 3.59793 8.32289 4.29145 7.13345 6.35088C7.08458 6.43534 7.07163 6.53341 7.09656 6.62721C7.12181 6.72101 7.18233 6.80006 7.26613 6.84843C7.52622 6.99783 7.88242 6.9014 8.03066 6.64311L9.02429 4.92282C9.08366 4.82032 9.2037 4.76998 9.31882 4.80113C9.43329 4.8318 9.51283 4.93561 9.51283 5.05401V10.4621C9.51283 10.7173 9.70535 10.9375 9.94201 10.9531C10.0785 10.9603 10.2057 10.9146 10.3013 10.8191C10.3882 10.7322 10.4361 10.6164 10.4361 10.4926V6.95564C10.4361 6.811 10.5534 6.69374 10.698 6.69374C10.8427 6.69374 10.9599 6.81084 10.9599 6.95564L10.9597 11.2966C10.9597 11.5511 11.1669 11.7582 11.4214 11.7582C11.545 11.7582 11.6611 11.7103 11.7482 11.6234C11.8351 11.5363 11.883 11.4202 11.883 11.2966V6.95564C11.883 6.811 12.0001 6.69374 12.1449 6.69374C12.2896 6.69374 12.4068 6.81083 12.4068 6.95564L12.4067 10.4519V10.4926C12.4067 10.747 12.6138 10.9541 12.8685 10.9541C12.9919 10.9541 13.1077 10.906 13.1953 10.8188C13.2822 10.732 13.3301 10.6163 13.3301 10.4924V6.95545C13.3301 6.81081 13.4472 6.69356 13.592 6.69356C13.7366 6.69356 13.8539 6.81065 13.8539 6.95545L13.8536 9.62526C13.8536 9.87994 14.0607 10.0871 14.315 10.0871C14.4388 10.0871 14.5546 10.039 14.6415 9.95227C14.7288 9.86502 14.7765 9.74891 14.7765 9.62526L14.7767 4.21377C14.7767 2.40905 13.4408 0.940471 11.7987 0.940471L11.7987 0.940417Z"/>
</mask>
<path d="M14.315 10.6106C14.1474 10.6106 13.9918 10.5645 13.8536 10.4904V10.4923C13.8536 10.756 13.7511 11.0037 13.5651 11.1891C13.3791 11.3751 13.1317 11.4776 12.8683 11.4776C12.6982 11.4776 12.5406 11.4304 12.4009 11.3543C12.3868 11.5955 12.2904 11.821 12.1183 11.9932C11.9324 12.1792 11.6849 12.2817 11.4214 12.2817C10.8977 12.2817 10.4725 11.8701 10.4418 11.3541C10.2798 11.4417 10.0966 11.4876 9.9077 11.4755C9.39257 11.4417 8.98917 10.9966 8.98917 10.462V6.03036L8.48454 6.9046C8.29235 7.23897 7.93256 7.44658 7.5452 7.44658C7.35644 7.44658 7.16998 7.39706 7.00484 7.30243C6.7992 7.18321 6.6521 6.99184 6.59093 6.76288C6.52943 6.53379 6.56124 6.29419 6.68014 6.08886C6.6803 6.08886 8.33121 3.22996 8.43192 3.05435C8.4439 3.02795 8.47801 2.95137 8.50703 2.8861C8.53475 2.82378 8.55853 2.75982 8.58132 2.69554C9.07919 1.28998 10.3119 0.416874 11.7987 0.416874C13.7294 0.416874 15.3001 2.12009 15.3001 4.21365L15.3003 9.62514C15.3003 9.88851 15.1979 10.136 15.0121 10.3221C14.8262 10.5081 14.5787 10.6106 14.315 10.6106L14.315 10.6106ZM11.7987 0.940417C10.5212 0.940417 9.50297 1.66201 9.0748 2.87063C9.04741 2.94737 9.01888 3.02412 8.98558 3.0989C8.88899 3.31554 8.88899 3.31554 8.86177 3.34669L8.85816 3.34358C8.72336 3.59793 8.32289 4.29145 7.13345 6.35088C7.08458 6.43534 7.07163 6.53341 7.09656 6.62721C7.12181 6.72101 7.18233 6.80006 7.26613 6.84843C7.52622 6.99783 7.88242 6.9014 8.03066 6.64311L9.02429 4.92282C9.08366 4.82032 9.2037 4.76998 9.31882 4.80113C9.43329 4.8318 9.51283 4.93561 9.51283 5.05401V10.4621C9.51283 10.7173 9.70535 10.9375 9.94201 10.9531C10.0785 10.9603 10.2057 10.9146 10.3013 10.8191C10.3882 10.7322 10.4361 10.6164 10.4361 10.4926V6.95564C10.4361 6.811 10.5534 6.69374 10.698 6.69374C10.8427 6.69374 10.9599 6.81084 10.9599 6.95564L10.9597 11.2966C10.9597 11.5511 11.1669 11.7582 11.4214 11.7582C11.545 11.7582 11.6611 11.7103 11.7482 11.6234C11.8351 11.5363 11.883 11.4202 11.883 11.2966V6.95564C11.883 6.811 12.0001 6.69374 12.1449 6.69374C12.2896 6.69374 12.4068 6.81083 12.4068 6.95564L12.4067 10.4519V10.4926C12.4067 10.747 12.6138 10.9541 12.8685 10.9541C12.9919 10.9541 13.1077 10.906 13.1953 10.8188C13.2822 10.732 13.3301 10.6163 13.3301 10.4924V6.95545C13.3301 6.81081 13.4472 6.69356 13.592 6.69356C13.7366 6.69356 13.8539 6.81065 13.8539 6.95545L13.8536 9.62526C13.8536 9.87994 14.0607 10.0871 14.315 10.0871C14.4388 10.0871 14.5546 10.039 14.6415 9.95227C14.7288 9.86502 14.7765 9.74891 14.7765 9.62526L14.7767 4.21377C14.7767 2.40905 13.4408 0.940471 11.7987 0.940471L11.7987 0.940417Z" fill="#4CAF4F"/>
<path d="M14.315 10.6106V9.68248H17.594L14.8015 11.401L14.315 10.6106ZM13.8536 10.4904H12.9255V8.93963L14.2921 9.67243L13.8536 10.4904ZM13.5651 11.1891L12.9088 10.5329L12.9097 10.532L13.5651 11.1891ZM12.4009 11.3543L11.4744 11.3001L11.5598 9.83945L12.8448 10.5392L12.4009 11.3543ZM12.1183 11.9932L12.775 12.6491L12.7746 12.6495L12.1183 11.9932ZM10.4418 11.3541L10.0006 10.5377L11.2819 9.84511L11.3683 11.2991L10.4418 11.3541ZM9.9077 11.4755L9.8482 12.4017L9.84696 12.4016L9.9077 11.4755ZM8.98917 6.03036L8.18537 5.56639L9.91726 2.56598V6.03036H8.98917ZM8.48454 6.9046L7.6799 6.44209L7.68075 6.44063L8.48454 6.9046ZM7.00484 7.30243L6.54342 8.10771L6.53936 8.10535L7.00484 7.30243ZM6.59093 6.76288L7.48729 6.52227L7.48757 6.52332L6.59093 6.76288ZM6.68014 6.08886L5.87697 5.6238L6.14508 5.16077H6.68014V6.08886ZM8.43192 3.05435L9.27719 3.43761L9.25896 3.4778L9.23701 3.51608L8.43192 3.05435ZM8.50703 2.8861L7.65902 2.50897L7.65902 2.50896L8.50703 2.8861ZM8.58132 2.69554L9.45616 3.00541L9.45607 3.00566L8.58132 2.69554ZM15.3001 4.21365L14.372 4.21368V4.21365H15.3001ZM15.3003 9.62514L16.2283 9.62511V9.62514H15.3003ZM15.0121 10.3221L15.669 10.9778L15.6684 10.9784L15.0121 10.3221ZM14.315 10.6106V11.5387H11.036L13.8286 9.82017L14.315 10.6106ZM11.7987 0.940417V0.0123243H13.0291L12.6911 1.19538L11.7987 0.940417ZM9.0748 2.87063L9.94962 3.18055L9.9489 3.18254L9.0748 2.87063ZM8.98558 3.0989L9.83345 3.47636L9.83324 3.47685L8.98558 3.0989ZM8.86177 3.34669L9.56067 3.95735L8.95352 4.65223L8.25515 4.0491L8.86177 3.34669ZM8.85816 3.34358L8.03812 2.90898L8.58344 1.88002L9.46478 2.64118L8.85816 3.34358ZM7.13345 6.35088L7.93714 6.81505L7.93675 6.81572L7.13345 6.35088ZM7.09656 6.62721L6.20037 6.86848L6.1996 6.86558L7.09656 6.62721ZM7.26613 6.84843L6.80386 7.65321L6.80212 7.65221L7.26613 6.84843ZM8.03066 6.64311L7.22572 6.18113L7.22699 6.17892L8.03066 6.64311ZM9.02429 4.92282L8.22063 4.45862L8.22119 4.45765L9.02429 4.92282ZM9.31882 4.80113L9.07865 5.69762L9.07635 5.69699L9.31882 4.80113ZM9.94201 10.9531L9.89299 11.88L9.88106 11.8792L9.94201 10.9531ZM10.3013 10.8191L10.9576 11.4754L10.957 11.476L10.3013 10.8191ZM10.9599 6.95564H11.888V6.95568L10.9599 6.95564ZM10.9597 11.2966H10.0317V11.2966L10.9597 11.2966ZM11.7482 11.6234L12.4051 12.2791L12.4038 12.2803L11.7482 11.6234ZM12.4068 6.95564H13.3349V6.95568L12.4068 6.95564ZM12.4067 10.4519H11.4786V10.4519L12.4067 10.4519ZM13.1953 10.8188L13.8509 11.4757L13.8503 11.4763L13.1953 10.8188ZM13.8539 6.95545H14.782V6.95557L13.8539 6.95545ZM13.8536 9.62526H12.9255V9.62515L13.8536 9.62526ZM14.6415 9.95227L15.2978 10.6085L15.2972 10.6091L14.6415 9.95227ZM14.7765 9.62526H13.8484V9.62524L14.7765 9.62526ZM14.7767 4.21377H15.7048V4.2138L14.7767 4.21377ZM11.7987 0.940471V1.86856H10.5683L10.9063 0.685504L11.7987 0.940471ZM14.315 11.5387C13.9733 11.5387 13.6682 11.4441 13.415 11.3083L14.2921 9.67243C14.3041 9.67886 14.3117 9.68132 14.3148 9.68214C14.3174 9.68284 14.317 9.68248 14.315 9.68248V11.5387ZM14.7817 10.4904V10.4923H12.9255V10.4904H14.7817ZM14.7817 10.4923C14.7817 11.0014 14.5819 11.4858 14.2205 11.8463L12.9097 10.532C12.9163 10.5254 12.9196 10.5197 12.9216 10.5151C12.9235 10.5105 12.9255 10.5033 12.9255 10.4923H14.7817ZM14.2214 11.8454C13.8612 12.2056 13.3776 12.4057 12.8683 12.4057V10.5495C12.8789 10.5495 12.886 10.5476 12.8907 10.5456C12.8955 10.5436 12.9016 10.5401 12.9088 10.5329L14.2214 11.8454ZM12.8683 12.4057C12.5221 12.4057 12.2132 12.3088 11.957 12.1694L12.8448 10.5392C12.8569 10.5458 12.8645 10.5483 12.8676 10.5491C12.8702 10.5498 12.8699 10.5495 12.8683 10.5495V12.4057ZM13.3274 11.4085C13.3007 11.8653 13.1154 12.3083 12.775 12.6491L11.4617 11.3373C11.4652 11.3338 11.4672 11.3308 11.4689 11.327C11.4707 11.3228 11.4736 11.3143 11.4744 11.3001L13.3274 11.4085ZM12.7746 12.6495C12.4144 13.0097 11.9308 13.2098 11.4214 13.2098V11.3536C11.4322 11.3536 11.4392 11.3516 11.444 11.3497C11.4487 11.3477 11.4548 11.3442 11.4621 11.337L12.7746 12.6495ZM11.4214 13.2098C10.3967 13.2098 9.57456 12.4056 9.51537 11.4092L11.3683 11.2991C11.3692 11.3149 11.3757 11.3287 11.3871 11.3396C11.3927 11.3449 11.3983 11.3484 11.4033 11.3504C11.4076 11.3521 11.4131 11.3536 11.4214 11.3536V13.2098ZM10.8831 12.1706C10.5833 12.3326 10.2279 12.4261 9.8482 12.4017L9.96719 10.5493C9.96721 10.5493 9.96919 10.5495 9.97408 10.5483C9.97932 10.5471 9.9884 10.5442 10.0006 10.5377L10.8831 12.1706ZM9.84696 12.4016C8.81647 12.334 8.06108 11.4577 8.06108 10.462H9.91726C9.91726 10.4934 9.92865 10.5175 9.94294 10.5333C9.95686 10.5486 9.96631 10.5492 9.96843 10.5494L9.84696 12.4016ZM8.06108 10.462V6.03036H9.91726V10.462H8.06108ZM9.79297 6.49433L9.28834 7.36856L7.68075 6.44063L8.18537 5.56639L9.79297 6.49433ZM9.28919 7.3671C8.93056 7.99101 8.26303 8.37468 7.5452 8.37468V6.51849C7.6021 6.51849 7.65413 6.48694 7.6799 6.44209L9.28919 7.3671ZM7.5452 8.37468C7.19423 8.37468 6.84874 8.28264 6.54343 8.1077L7.46626 6.49717C7.49122 6.51147 7.51865 6.51849 7.5452 6.51849V8.37468ZM6.53936 8.10535C6.12268 7.86379 5.81938 7.47066 5.69429 7.00245L7.48757 6.52332C7.48672 6.52015 7.48441 6.51454 7.47994 6.50872C7.4755 6.50294 7.4714 6.50013 7.47033 6.49952L6.53936 8.10535ZM5.69456 7.00349C5.56898 6.53562 5.63473 6.04217 5.87697 5.6238L7.48331 6.55392C7.48463 6.55163 7.48695 6.54634 7.48794 6.53884C7.48894 6.53132 7.4881 6.52531 7.48729 6.52227L5.69456 7.00349ZM6.68014 5.16077C6.22487 5.2801 5.88411 5.61169 5.88156 5.61596C5.88072 5.61739 5.87945 5.61954 5.87905 5.62023C5.87882 5.62062 5.87843 5.6213 5.87829 5.62153C5.87821 5.62167 5.87804 5.62196 5.878 5.62203C5.87787 5.62226 5.87791 5.62219 5.87826 5.62159C5.87889 5.6205 5.87995 5.61867 5.88149 5.616C5.88454 5.61073 5.88912 5.60281 5.89517 5.59234C5.90725 5.57143 5.92501 5.54069 5.94768 5.50145C5.99301 5.42297 6.05789 5.31064 6.13606 5.17527C6.29242 4.90453 6.50193 4.54171 6.71458 4.1734C7.1406 3.43554 7.57737 2.67888 7.62684 2.59262L9.23701 3.51608C9.18577 3.60543 8.74672 4.36603 8.32207 5.10152C8.10939 5.46988 7.89984 5.83276 7.74346 6.10355C7.66527 6.23895 7.60035 6.35134 7.55498 6.4299C7.53229 6.46917 7.51447 6.50002 7.5023 6.52108C7.49622 6.53159 7.49151 6.53974 7.4883 6.5453C7.48671 6.54805 7.48539 6.55032 7.48443 6.55199C7.48398 6.55276 7.48342 6.55372 7.48289 6.55464C7.48269 6.55498 7.4821 6.556 7.48138 6.55723C7.48093 6.558 7.47963 6.56021 7.47875 6.56169C7.47618 6.56601 7.1354 6.89762 6.68014 7.01695V5.16077ZM7.58666 2.67109C7.59688 2.64856 7.62925 2.57592 7.65902 2.50897L9.35505 3.26322C9.32677 3.32682 9.29091 3.40734 9.27719 3.43761L7.58666 2.67109ZM7.65902 2.50896C7.67192 2.47995 7.6862 2.44289 7.70658 2.38541L9.45607 3.00566C9.43086 3.07675 9.39758 3.1676 9.35505 3.26323L7.65902 2.50896ZM7.70649 2.38566C8.33508 0.611045 9.91725 -0.511219 11.7987 -0.511219V1.34497C10.7066 1.34497 9.8233 1.96891 9.45616 3.00541L7.70649 2.38566ZM11.7987 -0.511219C14.3113 -0.511219 16.2282 1.67972 16.2282 4.21365H14.372C14.372 2.56046 13.1475 1.34497 11.7987 1.34497V-0.511219ZM16.2282 4.21362L16.2283 9.62511L14.3722 9.62517L14.372 4.21368L16.2282 4.21362ZM16.2283 9.62514C16.2283 10.1341 16.0287 10.6174 15.669 10.9778L14.3553 9.66647C14.3626 9.65912 14.3662 9.65287 14.3682 9.648C14.3702 9.64312 14.3722 9.63596 14.3722 9.62514H16.2283ZM15.6684 10.9784C15.3081 11.3387 14.8245 11.5387 14.315 11.5387V9.6825C14.3259 9.6825 14.333 9.68052 14.3378 9.67856C14.3425 9.6766 14.3486 9.6731 14.3559 9.66587L15.6684 10.9784ZM13.8286 9.82017L13.8286 9.82015L14.8015 11.401L14.8014 11.401L13.8286 9.82017ZM11.7987 1.86851C10.9163 1.86851 10.2472 2.34055 9.94961 3.18055L8.19998 2.56071C8.75875 0.983459 10.1261 0.0123243 11.7987 0.0123243V1.86851ZM9.9489 3.18254C9.91961 3.26464 9.88155 3.36833 9.83345 3.47636L8.13771 2.72145C8.1562 2.67992 8.17521 2.63011 8.20069 2.55871L9.9489 3.18254ZM9.83324 3.47685C9.79073 3.57217 9.75513 3.65267 9.72788 3.7072C9.71097 3.74104 9.68359 3.7932 9.64389 3.85097C9.60366 3.9095 9.5639 3.95365 9.56067 3.95735L8.16287 2.73604C8.16505 2.73355 8.16434 2.73436 8.16324 2.73563C8.16182 2.73728 8.15822 2.74149 8.15348 2.74726C8.14858 2.75323 8.1424 2.76095 8.13545 2.77013C8.12843 2.77939 8.12129 2.78924 8.11414 2.79963C8.0996 2.82079 8.08841 2.83932 8.08045 2.85333C8.07302 2.86642 8.06846 2.87547 8.06744 2.87751C8.06639 2.87962 8.06705 2.87838 8.0702 2.87163C8.07326 2.86508 8.07759 2.85566 8.0838 2.84195C8.08995 2.82835 8.09732 2.81193 8.10639 2.79164C8.11545 2.77138 8.1258 2.74817 8.13793 2.72096L9.83324 3.47685ZM8.25515 4.0491L8.25154 4.04598L9.46478 2.64118L9.46839 2.64429L8.25515 4.0491ZM9.67821 3.77818C9.53295 4.05226 9.11827 4.76999 7.93714 6.81505L6.32977 5.88671C7.52751 3.81291 7.91377 3.1436 8.03812 2.90898L9.67821 3.77818ZM7.93675 6.81572C8.01101 6.68739 8.03171 6.53255 7.99351 6.38883L6.1996 6.86558C6.11155 6.53426 6.15816 6.18329 6.33016 5.88604L7.93675 6.81572ZM7.99274 6.38593C7.95455 6.24408 7.86068 6.12002 7.73013 6.04465L6.80212 7.65221C6.50397 7.48009 6.28907 7.19794 6.20037 6.86848L7.99274 6.38593ZM7.72839 6.04366C7.62275 5.98297 7.52 5.98337 7.44905 6.00248C7.37838 6.0215 7.28775 6.07305 7.22572 6.18113L8.8356 7.1051C8.43112 7.80985 7.50672 8.05694 6.80386 7.65321L7.72839 6.04366ZM7.22699 6.17892L8.22063 4.45862L9.82796 5.38701L8.83433 7.10731L7.22699 6.17892ZM8.22119 4.45765C8.48926 3.99483 9.03643 3.76322 9.5613 3.90528L9.07635 5.69699C9.37097 5.77674 9.67806 5.64581 9.8274 5.38799L8.22119 4.45765ZM9.55899 3.90466C10.0797 4.04415 10.4409 4.51599 10.4409 5.05401H8.58473C8.58473 5.35523 8.78692 5.61946 9.07865 5.69761L9.55899 3.90466ZM10.4409 5.05401V10.4621H8.58473V5.05401H10.4409ZM10.4409 10.4621C10.4409 10.3564 10.4017 10.2602 10.3374 10.1867C10.2732 10.1132 10.1599 10.0374 10.003 10.027L9.88106 11.8792C9.09978 11.8278 8.58473 11.1472 8.58473 10.4621H10.4409ZM9.99102 10.0263C9.88138 10.0205 9.74743 10.0607 9.64563 10.1623L10.957 11.476C10.664 11.7685 10.2755 11.9001 9.89299 11.8799L9.99102 10.0263ZM9.64506 10.1629C9.55698 10.251 9.50802 10.3716 9.50802 10.4926H11.3642C11.3642 10.8613 11.2195 11.2135 10.9576 11.4754L9.64506 10.1629ZM9.50802 10.4926V6.95564H11.3642V10.4926H9.50802ZM9.50802 6.95564C9.50802 6.29843 10.0408 5.76565 10.698 5.76565V7.62184C11.0659 7.62184 11.3642 7.32357 11.3642 6.95564H9.50802ZM10.698 5.76565C11.3549 5.76565 11.888 6.29789 11.888 6.95564H10.0318C10.0318 7.32378 10.3305 7.62184 10.698 7.62184V5.76565ZM11.888 6.95568L11.8878 11.2966L10.0317 11.2966L10.0318 6.95561L11.888 6.95568ZM11.8878 11.2966C11.8878 11.0385 11.6794 10.8301 11.4214 10.8301V12.6863C10.6543 12.6863 10.0317 12.0637 10.0317 11.2966H11.8878ZM11.4214 10.8301C11.3006 10.8301 11.1805 10.8788 11.0926 10.9665L12.4038 12.2803C12.1418 12.5419 11.7895 12.6863 11.4214 12.6863V10.8301ZM11.0913 10.9678C11.0036 11.0557 10.9549 11.1758 10.9549 11.2966H12.8111C12.8111 11.6647 12.6667 12.017 12.4051 12.2791L11.0913 10.9678ZM10.9549 11.2966V6.95564H12.8111V11.2966H10.9549ZM10.9549 6.95564C10.9549 6.29881 11.4872 5.76565 12.1449 5.76565V7.62183C12.5131 7.62183 12.8111 7.32318 12.8111 6.95564H10.9549ZM12.1449 5.76565C12.8018 5.76565 13.3349 6.29788 13.3349 6.95564H11.4787C11.4787 7.32378 11.7774 7.62183 12.1449 7.62183V5.76565ZM13.3349 6.95568L13.3347 10.452L11.4786 10.4519L11.4787 6.95559L13.3349 6.95568ZM13.3347 10.4519V10.4926H11.4786V10.4519H13.3347ZM13.3347 10.4926C13.3347 10.2339 13.1259 10.026 12.8685 10.026V11.8822C12.1017 11.8822 11.4786 11.26 11.4786 10.4926H13.3347ZM12.8685 10.026C12.7451 10.026 12.6257 10.0761 12.5403 10.1613L13.8503 11.4763C13.5897 11.7359 13.2387 11.8822 12.8685 11.8822V10.026ZM12.5397 10.1619C12.4509 10.2505 12.402 10.3716 12.402 10.4924H14.2582C14.2582 10.8609 14.1135 11.2136 13.8509 11.4757L12.5397 10.1619ZM12.402 10.4924V6.95545H14.2582V10.4924H12.402ZM12.402 6.95545C12.402 6.29861 12.9342 5.76547 13.592 5.76547V7.62165C13.9601 7.62165 14.2582 7.32301 14.2582 6.95545H12.402ZM13.592 5.76547C14.2488 5.76547 14.782 6.2977 14.782 6.95545H12.9258C12.9258 7.3236 13.2244 7.62165 13.592 7.62165V5.76547ZM14.782 6.95557L14.7817 9.62538L12.9255 9.62515L12.9258 6.95534L14.782 6.95557ZM14.7817 9.62526C14.7817 9.36781 14.5737 9.15897 14.315 9.15897V11.0152C13.5477 11.0152 12.9255 10.3921 12.9255 9.62526H14.7817ZM14.315 9.15897C14.1933 9.15897 14.0732 9.20827 13.9859 9.29539L15.2972 10.6091C15.0361 10.8698 14.6844 11.0152 14.315 11.0152V9.15897ZM13.9853 9.29601C13.8969 9.38438 13.8484 9.50499 13.8484 9.62526H15.7046C15.7046 9.99283 15.5607 10.3457 15.2978 10.6085L13.9853 9.29601ZM13.8484 9.62524L13.8486 4.21375L15.7048 4.2138L15.7046 9.62529L13.8484 9.62524ZM13.8486 4.21377C13.8486 2.83704 12.8475 1.86856 11.7987 1.86856V0.0123777C14.034 0.0123777 15.7048 1.98106 15.7048 4.21377H13.8486ZM10.9063 0.685504L10.9063 0.685451L12.6911 1.19538L12.6911 1.19544L10.9063 0.685504Z" fill="#4CAF4F" mask="url(#path-1-inside-1_211_2339)"/>
<path d="M5.83246 15.5855C5.70815 15.6603 5.54744 15.6199 5.47315 15.4958C5.3987 15.3718 5.43904 15.2109 5.56285 15.1365M5.83246 15.5855L8.09506 12.541C8.31366 12.4096 8.60195 12.4614 8.73675 12.6564M5.83246 15.5855L8.86532 13.766H8.86549L8.86582 13.7658M5.83246 15.5855L10.0298 14.1441C10.1358 14.0805 10.2106 13.9798 10.2404 13.8603M5.56285 15.1365L8.59589 13.317C8.70183 13.2533 8.77677 13.1525 8.80662 13.0333M5.56285 15.1365L5.59356 15.1877L5.69756 15.361L5.69776 15.3614L5.74463 15.4395L5.80157 15.5344L5.80169 15.5343L5.80175 15.5343L5.80199 15.5342M5.56285 15.1365L5.59361 15.1876M8.80662 13.0333C8.83942 12.9024 8.81449 12.7686 8.73675 12.6564M8.80662 13.0333L8.88147 13.052L8.87433 12.8981C8.8694 12.7922 8.83842 12.6982 8.786 12.6227L8.78586 12.6225L8.73675 12.6564M8.80662 13.0333L8.88148 13.052L8.88885 13.2108L8.73702 13.3019H8.7368L8.6266 13.368L8.62658 13.3681L8.62655 13.3681L5.59373 15.1875M8.73675 12.6564L8.78582 12.6224L6.5465 16.7749C6.64173 16.7176 6.67323 16.5938 6.61549 16.4976C6.55823 16.4023 6.43396 16.3709 6.33825 16.4283L9.37113 14.6089C9.44083 14.567 9.51385 14.5354 9.58844 14.5137L10.0588 14.1925L10.0589 14.1925L10.0848 14.1748C10.1951 14.0994 10.2681 13.995 10.2981 13.8748L10.2982 13.8747L10.2404 13.8603M5.59373 15.1875C5.68917 15.1305 5.8134 15.1614 5.87097 15.2569C5.8711 15.2571 5.87122 15.2573 5.87134 15.2575C5.92858 15.3535 5.89701 15.477 5.80199 15.5342M5.59373 15.1875C5.59369 15.1876 5.59365 15.1876 5.59361 15.1876M5.59373 15.1875L5.59361 15.1876M5.80199 15.5342L8.83461 13.7149L8.83466 13.7149L8.83482 13.7148C8.83491 13.7147 8.835 13.7147 8.8351 13.7146L8.86532 13.765L8.86549 13.7653L8.86582 13.7658M5.80199 15.5342L5.698 15.3612L5.69779 15.3609L5.66261 15.3024L5.59361 15.1876M8.86582 13.7658V13.6953C8.92434 13.657 8.97789 13.6126 9.02572 13.563L9.52493 13.3024L9.52496 13.3024L9.5526 13.288C9.63286 13.2461 9.71378 13.2265 9.79065 13.2265C9.83222 13.2265 9.87509 13.2317 9.91876 13.2425C9.91878 13.2425 9.91881 13.2425 9.91883 13.2425C9.91898 13.2425 9.91913 13.2426 9.91928 13.2426L10.017 12.8502M8.86582 13.7658L9.55491 13.3524C9.66052 13.2891 9.78417 13.2706 9.90438 13.3004C10.0239 13.3302 10.1248 13.405 10.1882 13.5108C10.2517 13.6167 10.2702 13.7409 10.2404 13.8603M10.017 12.8502C10.017 12.8502 10.0169 12.8502 10.0169 12.8502M10.017 12.8502C10.2561 12.91 10.4594 13.0609 10.5861 13.2719L10.6372 13.2413M10.017 12.8502L10.0314 12.7923M10.0169 12.8502L9.91891 13.2425C10.0547 13.2764 10.1672 13.3598 10.2392 13.48C10.2393 13.48 10.2393 13.4801 10.2393 13.4801C10.2393 13.4802 10.2393 13.4802 10.2394 13.4802C10.3116 13.6009 10.332 13.7393 10.2982 13.8746L10.2982 13.8747L10.2404 13.8603M10.0169 12.8502C10.0169 12.8502 10.0168 12.8502 10.0168 12.8502L10.0162 12.85C9.9445 12.8322 9.87184 12.8231 9.79956 12.8225M10.0169 12.8502L10.0314 12.7923M9.57931 14.9555L9.84092 14.7986L10.1107 14.9577C10.1915 15.0054 10.2525 15.0651 10.2938 15.134L10.2939 15.1343C10.294 15.1344 10.294 15.1344 10.2941 15.1345L10.2432 15.1651M9.57931 14.9555L10.3531 15.5291C10.3868 15.3935 10.3663 15.2551 10.2941 15.1346L10.2432 15.1651M9.57931 14.9555L9.61001 15.0067M9.57931 14.9555L9.57929 14.9556L9.61001 15.0067M10.2432 15.1651C10.1122 14.9469 9.82795 14.8758 9.61001 15.0067M10.2432 15.1651C10.3068 15.2709 10.3253 15.3952 10.2955 15.5148L9.61001 15.0067M10.6854 14.8848C10.6876 14.8884 10.6898 14.8921 10.692 14.8957L10.6854 14.8848ZM10.6854 14.8848C10.6697 14.8971 10.6538 14.909 10.6376 14.9206C10.6387 14.9224 10.6398 14.9241 10.6408 14.9259L10.6854 14.8848ZM10.6131 14.1771C10.6466 14.113 10.6727 14.0445 10.6906 13.9728L10.6131 14.1771ZM10.6131 14.1771C10.6298 14.1874 10.6463 14.1981 10.6627 14.2092C10.6999 14.1399 10.7288 14.0656 10.7484 13.9872C10.8122 13.7321 10.7727 13.4673 10.6372 13.2413M10.6131 14.1771L10.6906 13.9727C10.7504 13.7336 10.7127 13.4833 10.5863 13.2723L10.5862 13.272C10.5861 13.272 10.5861 13.272 10.5861 13.2719L10.6372 13.2413M10.6372 13.2413C10.5019 13.0157 10.2867 12.8561 10.0314 12.7923M10.0314 12.7923L9.79432 12.7625M9.79432 12.7625C9.79646 12.7825 9.79821 12.8025 9.79956 12.8225M9.79432 12.7625C9.7931 12.7625 9.79187 12.7625 9.79065 12.7625C9.63372 12.7625 9.47956 12.8026 9.33787 12.8766M9.79432 12.7625L9.33787 12.8766M9.79956 12.8225C9.80029 12.8333 9.80091 12.8442 9.80142 12.8551L9.79065 12.8556L9.50255 12.869M9.79956 12.8225C9.79659 12.8224 9.79362 12.8224 9.79065 12.8224C9.69273 12.8225 9.59559 12.8382 9.50255 12.869M9.50255 12.869L9.33787 12.8766M9.50255 12.869C9.4553 12.8846 9.40911 12.9041 9.3644 12.9274C9.34818 12.9359 9.33215 12.9449 9.31634 12.9544L9.31617 12.9545L9.28318 12.9743M9.33787 12.8766L9.07339 13.1001L9.07348 13.1001L9.25677 13.1459C9.25676 13.146 9.25675 13.146 9.25674 13.1461C9.27105 13.089 9.2798 13.0315 9.28318 12.9743M9.33787 12.8766L9.26703 12.7409M9.33787 12.8766C9.33053 12.7185 9.28885 12.5628 9.20885 12.4238C9.19067 12.4319 9.17265 12.4404 9.1548 12.4492M9.28318 12.9743C9.28505 12.9424 9.28527 12.9107 9.28385 12.8791C9.28176 12.8326 9.27612 12.7864 9.26703 12.7409M9.28318 12.9743L9.26703 12.7409M9.26703 12.7409L9.12314 12.4652C9.13363 12.4598 9.14419 12.4544 9.1548 12.4492M9.26703 12.7409L9.11827 12.3922C9.13117 12.4109 9.14335 12.4298 9.1548 12.4492M9.26703 12.7409C9.24663 12.6389 9.20887 12.5404 9.1548 12.4492M10.3464 14.558L10.4258 14.4236C10.3914 14.4557 10.3544 14.4853 10.3151 14.5122C10.3 14.5225 10.2846 14.5325 10.2688 14.5419L10.2685 14.5421L10.235 14.5622L10.3464 14.558ZM2.93563 12.3984L2.88287 12.3706C2.87317 12.3881 2.84902 12.4316 2.81336 12.4959C2.80452 12.5118 2.79499 12.529 2.78479 12.5473C2.80297 12.5564 2.82131 12.5644 2.83968 12.5713C2.87105 12.5148 2.90303 12.4571 2.93563 12.3984ZM7.0826 17.6691C7.08256 17.6691 7.08251 17.6691 7.08246 17.6691L7.0826 17.6691Z" fill="#4CAF4F" stroke="#4CAF4F" stroke-width="0.928093"/>
<path d="M18.7845 13.2345L18.7844 13.2345L18.7845 13.2345ZM18.7845 13.2345C18.6872 13.0603 18.6912 12.8458 18.7942 12.6741L18.7845 13.2345ZM13.0429 12.8222C12.9704 12.8228 12.8975 12.832 12.8255 12.85L13.0429 12.8222ZM13.0429 12.8222C13.0442 12.8023 13.046 12.7823 13.0481 12.7623L13.0429 12.8222ZM18.3668 13.5599L18.3274 13.4889L18.3668 13.5599ZM17.2487 15.1874C17.2486 15.1874 17.2485 15.1873 17.2484 15.1873L17.2485 15.1874L17.2487 15.1874ZM15.7598 17.6694C15.7597 17.6693 15.7596 17.6693 15.7595 17.6692L15.7598 17.6694ZM15.7593 17.6691L15.7595 17.6692L15.7593 17.6691Z" fill="#4CAF4F" stroke="#4CAF4F" stroke-width="0.928093"/>
</svg>
