<svg width="26" height="22" viewBox="0 0 26 22" fill="none" xmlns="http://www.w3.org/2000/svg">
<path d="M0.724451 21.3339C0.724451 21.5511 0.90073 21.7276 1.1182 21.7276H25.0962C25.3134 21.7276 25.49 21.5514 25.49 21.3339C25.49 21.1167 25.3137 20.9401 25.0962 20.9401H24.3684V9.63507C24.3684 9.41788 24.1921 9.24132 23.9746 9.24132L17.5459 9.24159V1.09123C17.5459 0.953392 17.474 0.825988 17.3564 0.754593C17.2392 0.68293 17.0926 0.678537 16.9707 0.741962L9.66169 4.54736C9.53127 4.61518 9.45 4.74973 9.45 4.89663V12.0158H2.3765C2.15932 12.0158 1.98276 12.1921 1.98276 12.4096V20.9402H1.11732C0.900133 20.9399 0.724121 21.1162 0.724121 21.3337L0.724451 21.3339ZM17.546 15.2051H23.5813V20.9405L17.546 20.9402V15.2051ZM17.546 12.4689H23.5813V14.4179L17.546 14.4176V12.4689ZM17.546 10.0287H23.5813V11.6819H17.546V10.0287ZM10.2371 5.13571L16.7583 1.74026V20.9398H10.2371V5.13571ZM4.71669 17.7953C4.71669 16.9782 5.36414 16.3131 6.16014 16.3131C6.95613 16.3131 7.60387 16.9779 7.60387 17.7953V20.9403H4.71669V17.7953ZM2.77023 12.8032H9.44988V20.9402H8.39135V17.7952C8.39135 16.5439 7.39081 15.5258 6.16014 15.5258C4.93003 15.5258 3.92949 16.5436 3.92949 17.7952V20.9402H2.77023V12.8032Z" fill="#103E13"/>
</svg>
