<svg width="24" height="22" viewBox="0 0 24 22" fill="none" xmlns="http://www.w3.org/2000/svg">
<path d="M15.1283 10.8911C14.9607 10.8911 14.805 10.845 14.6668 10.7709V10.7728C14.6668 11.0365 14.5643 11.2842 14.3783 11.4697C14.1924 11.6556 13.9449 11.7581 13.6815 11.7581C13.5115 11.7581 13.3539 11.7109 13.2141 11.6348C13.2 11.876 13.1036 12.1015 12.9316 12.2737C12.7456 12.4597 12.4982 12.5622 12.2346 12.5622C11.7109 12.5622 11.2857 12.1506 11.2551 11.6346C11.093 11.7222 10.9099 11.7681 10.7209 11.756C10.2058 11.7222 9.8024 11.2771 9.8024 10.7425V6.31088L9.29778 7.18511C9.10558 7.51949 8.7458 7.7271 8.35843 7.7271C8.16967 7.7271 7.98321 7.67758 7.81808 7.58295C7.61243 7.46373 7.46533 7.27235 7.40416 7.0434C7.34266 6.8143 7.37448 6.57471 7.49337 6.36938C7.49353 6.36938 9.14444 3.51048 9.24516 3.33487C9.25713 3.30847 9.29124 3.23188 9.32027 3.16661C9.34798 3.1043 9.37176 3.04034 9.39455 2.97605C9.89242 1.57049 11.1252 0.697392 12.6119 0.697392C14.5426 0.697392 16.1133 2.4006 16.1133 4.49417L16.1135 9.90566C16.1135 10.169 16.0112 10.4165 15.8254 10.6026C15.6394 10.7886 15.3919 10.8911 15.1282 10.8911L15.1283 10.8911ZM12.612 1.22093C11.3344 1.22093 10.3162 1.94252 9.88803 3.15114C9.86064 3.22789 9.83211 3.30464 9.79882 3.37942C9.70222 3.59606 9.70222 3.59606 9.675 3.62721L9.67139 3.6241C9.53659 3.87845 9.13612 4.57197 7.94669 6.6314C7.89782 6.71585 7.88486 6.81392 7.90979 6.90772C7.93504 7.00153 7.99556 7.08057 8.07936 7.12895C8.33945 7.27835 8.69565 7.18192 8.84389 6.92363L9.83753 5.20333C9.89689 5.10084 10.0169 5.05049 10.1321 5.08165C10.2465 5.11232 10.3261 5.21613 10.3261 5.33453V10.7427C10.3261 10.9978 10.5186 11.2181 10.7552 11.2336C10.8917 11.2409 11.0189 11.1951 11.1145 11.0997C11.2015 11.0127 11.2493 10.897 11.2493 10.7731V7.23616C11.2493 7.09152 11.3666 6.97426 11.5112 6.97426C11.6559 6.97426 11.7731 7.09136 11.7731 7.23616L11.773 11.5771C11.773 11.8316 11.9801 12.0387 12.2346 12.0387C12.3583 12.0387 12.4744 11.9909 12.5615 11.9039C12.6484 11.8169 12.6963 11.7008 12.6963 11.5771V7.23616C12.6963 7.09152 12.8133 6.97426 12.9581 6.97426C13.1028 6.97426 13.22 7.09135 13.22 7.23616L13.2199 10.7325V10.7731C13.2199 11.0275 13.427 11.2346 13.6817 11.2346C13.8052 11.2346 13.9209 11.1866 14.0085 11.0993C14.0954 11.0126 14.1433 10.8968 14.1433 10.773V7.23597C14.1433 7.09133 14.2604 6.97408 14.4052 6.97408C14.5499 6.97408 14.6671 7.09117 14.6671 7.23597L14.6668 9.90578C14.6668 10.1605 14.8739 10.3676 15.1283 10.3676C15.2521 10.3676 15.3678 10.3195 15.4548 10.2328C15.542 10.1455 15.5897 10.0294 15.5897 9.90578L15.5899 4.49429C15.5899 2.68957 14.254 1.22099 12.6119 1.22099L12.612 1.22093Z" fill="#103E13"/>
<path d="M4.83859 14.6523L8.63893 12.3724C9.09712 12.0972 9.68668 12.2142 9.98055 12.6387C10.0878 12.7934 10.1426 12.9736 10.1511 13.1571C10.2928 13.0832 10.4469 13.043 10.6039 13.043C10.6842 13.043 10.7649 13.053 10.8446 13.0728C11.1 13.1366 11.3151 13.2962 11.4504 13.5218C11.5859 13.7478 11.6254 14.0127 11.5616 14.2677C11.5027 14.5037 11.3592 14.7023 11.1597 14.8386C11.2992 14.9209 11.4196 15.0332 11.5052 15.1762C11.6407 15.4022 11.6802 15.6669 11.6165 15.9223C11.5528 16.1773 11.3932 16.3924 11.1672 16.5281L11.1659 16.5289C11.303 16.611 11.4212 16.7222 11.5059 16.8631C11.6415 17.0891 11.681 17.3539 11.6172 17.6092C11.5533 17.8644 11.3937 18.0796 11.168 18.215L6.52776 20.9988C5.66172 21.5182 4.66053 21.6974 3.70905 21.5031C2.74904 21.307 1.95398 20.7552 1.47056 19.9493C0.705522 18.6742 0.820175 17.1678 1.76919 16.018C1.81265 15.9656 1.85545 15.9121 1.89432 15.8567C1.93548 15.7981 1.98353 15.7292 1.99993 15.7056C2.09816 15.5301 3.70104 12.6422 3.70088 12.6426C3.86274 12.3505 4.16612 12.1852 4.47901 12.1853C4.62497 12.1853 4.77305 12.2213 4.90967 12.297C5.07464 12.3892 5.21322 12.5235 5.31014 12.6854C5.50939 13.0174 5.51644 13.433 5.32883 13.7693L4.83859 14.6523ZM4.86138 12.9546C4.81055 12.8698 4.74068 12.8022 4.65524 12.7543C4.47862 12.6566 4.25625 12.7202 4.15901 12.8962C3.01206 14.9625 2.62109 15.6667 2.4702 15.9173L2.47365 15.9181C2.46102 15.9601 2.46102 15.9601 2.32294 16.1574C2.27604 16.2241 2.22504 16.2882 2.17305 16.3514C1.357 17.3401 1.26225 18.5843 1.91935 19.6799C2.32638 20.3585 2.99909 20.8238 3.81362 20.99C4.63702 21.1575 5.50487 21.0017 6.25812 20.5497L10.8988 17.7658C11.0048 17.7024 11.0795 17.6015 11.1094 17.482C11.1392 17.3626 11.1207 17.2384 11.0571 17.1325C10.9262 16.9144 10.642 16.8427 10.4239 16.9741L8.13457 18.3475C8.01059 18.422 7.84955 18.382 7.77526 18.2578C7.70081 18.1338 7.74098 17.973 7.86496 17.8985L10.1545 16.5251L10.898 16.079C11.0039 16.0154 11.0789 15.9145 11.1087 15.7953C11.1386 15.6757 11.12 15.5514 11.0564 15.4457C10.9254 15.2274 10.6412 15.1564 10.4232 15.2872L7.3902 17.1067C7.2659 17.1814 7.10535 17.141 7.0309 17.017C6.95644 16.8931 6.99679 16.7322 7.1206 16.6577L10.8431 14.4247C10.949 14.361 11.0238 14.2603 11.0536 14.1408C11.0835 14.0214 11.0649 13.8973 11.0015 13.7913C10.938 13.6856 10.8372 13.6108 10.7176 13.5809C10.5974 13.5511 10.4738 13.5696 10.3681 13.6329L9.67905 14.0463C9.67889 14.0463 9.67889 14.0465 9.67872 14.0465H9.67856L6.64569 15.866C6.52138 15.9408 6.36067 15.9004 6.28638 15.7763C6.21193 15.6523 6.25227 15.4915 6.37608 15.417L9.40912 13.5975C9.51506 13.5339 9.59 13.433 9.61985 13.3138C9.65265 13.1829 9.62772 13.0491 9.54999 12.9369C9.41519 12.7419 9.12689 12.6901 8.90829 12.8215L4.27095 15.6035C4.16944 15.6641 4.0394 15.6494 3.95428 15.5672C3.86901 15.4849 3.84982 15.3555 3.90722 15.252L4.8715 13.5147C4.96826 13.341 4.96448 13.1265 4.86133 12.9546L4.86138 12.9546Z" fill="#103E13"/>
<path d="M22.9983 19.9491C22.515 20.7551 21.7202 21.3068 20.76 21.5029C19.8084 21.6969 18.8075 21.518 17.9413 20.9986L13.3006 18.2147C13.0748 18.0793 12.9151 17.8641 12.8511 17.6086C12.7876 17.3536 12.8273 17.0887 12.9626 16.8631C13.0471 16.722 13.1655 16.6108 13.3027 16.5287L13.3014 16.5279C13.0756 16.3924 12.9159 16.1772 12.8523 15.9221C12.7883 15.6669 12.828 15.4019 12.9634 15.1759C13.0507 15.0308 13.1702 14.9173 13.3067 14.8368C13.1086 14.7005 12.9659 14.5026 12.9072 14.2677C12.8432 14.0124 12.8829 13.7475 13.0184 13.5219C13.1537 13.296 13.369 13.1365 13.6242 13.0727C13.7039 13.0527 13.7847 13.0428 13.8648 13.0428C14.0219 13.043 14.176 13.0829 14.3177 13.157C14.3264 12.9735 14.381 12.7932 14.4883 12.6386C14.7823 12.2144 15.3714 12.0969 15.8302 12.3723L19.6304 14.6518L19.1406 13.7695C18.9527 13.4326 18.9595 13.0171 19.1588 12.6848C19.2559 12.5231 19.3946 12.3888 19.5604 12.2958C19.6967 12.2204 19.8443 12.1846 19.9899 12.1846C20.3026 12.1848 20.6063 12.3498 20.768 12.6419C21.3315 13.6572 22.3948 15.5719 22.4696 15.7056C22.4855 15.7287 22.5336 15.7976 22.5747 15.8561C22.6139 15.9117 22.6562 15.9649 22.7 16.0177C23.6489 17.1679 23.7633 18.6742 22.9983 19.9491L22.9983 19.9491ZM22.296 16.3514C22.2438 16.2883 22.1927 16.2238 22.1461 16.1574C22.0044 15.9564 22.0008 15.9511 21.9901 15.8985C21.8245 15.6244 21.4204 14.897 20.3097 12.8959C20.2123 12.7203 19.9909 12.6562 19.8146 12.7536C19.7279 12.8021 19.6582 12.8698 19.6073 12.9546C19.5044 13.1263 19.5004 13.3408 19.5977 13.515L20.5616 15.2518C20.6192 15.3555 20.6 15.4847 20.5149 15.567C20.4299 15.6495 20.3 15.664 20.198 15.6033L15.5607 12.8213C15.3421 12.6903 15.054 12.7416 14.9188 12.9367C14.8411 13.0489 14.8163 13.1827 14.8488 13.3134C14.8787 13.4328 14.9536 13.5335 15.0597 13.5971C15.06 13.5973 15.0602 13.5976 15.0605 13.5978L18.0926 15.4168C18.2166 15.4913 18.2568 15.652 18.1823 15.7761C18.1078 15.8999 17.9473 15.9404 17.823 15.8658L14.1005 13.6327C13.9949 13.5694 13.8706 13.5507 13.7512 13.5808C13.6315 13.6106 13.5308 13.6854 13.4673 13.7915C13.4037 13.8973 13.3854 14.0214 13.4149 14.1408C13.4447 14.2602 13.5197 14.361 13.6256 14.4247L14.35 14.8591L17.3479 16.6578C17.4719 16.7322 17.5121 16.8929 17.4376 17.0171C17.3632 17.1409 17.2026 17.1812 17.0783 17.1068L14.0456 15.2873C13.8275 15.1561 13.5434 15.2273 13.4123 15.4457C13.3486 15.5516 13.3303 15.6758 13.3598 15.7952C13.3896 15.9145 13.4646 16.0152 13.5707 16.079L14.3142 16.5251L16.6034 17.8985C16.7273 17.973 16.7675 18.1337 16.6931 18.2578C16.6186 18.3817 16.4581 18.4223 16.3338 18.3475L14.0446 16.9741C13.939 16.9108 13.8152 16.8921 13.6951 16.9221C13.5757 16.952 13.4747 17.0267 13.4113 17.1325C13.3478 17.2385 13.3293 17.3628 13.3588 17.482C13.3886 17.6014 13.4636 17.7021 13.5697 17.7659L18.2104 20.5498C18.9635 21.0016 19.8319 21.158 20.6549 20.9901C21.4692 20.8238 22.142 20.3585 22.549 19.6799C23.2068 18.5841 23.1121 17.3398 22.2963 16.3514L22.296 16.3514Z" fill="#103E13"/>
</svg>
