<svg width="35" height="20" viewBox="0 0 35 20" fill="none" xmlns="http://www.w3.org/2000/svg">
<path d="M17.3728 0.393494C14.8869 0.393494 12.8632 2.43568 12.8632 4.9321C12.8632 6.51137 13.6742 7.9058 14.8988 8.71859C13.4197 9.21314 12.1399 10.1374 11.2013 11.3466C10.6823 10.9474 10.1024 10.6264 9.47729 10.3964C10.4252 9.6926 11.0447 8.56211 11.0447 7.29153C11.0447 5.17426 9.33233 3.44102 7.22789 3.44102C5.12346 3.44102 3.41107 5.17426 3.41107 7.29153C3.41107 8.56284 4.03106 9.69385 4.97981 10.3976C2.46799 11.3245 0.674072 13.7512 0.674072 16.6072V18.6134C0.674329 18.7663 0.735505 18.9129 0.843975 19.0206C0.952444 19.1285 1.09922 19.1887 1.25216 19.1882H10.0539C10.0753 19.1905 10.0966 19.1918 10.1179 19.1915H24.6281C24.6494 19.1918 24.671 19.1905 24.6921 19.1882H33.4945C33.8109 19.1869 34.0672 18.9301 34.068 18.6134V16.6072C34.068 13.7512 32.2772 11.3245 29.7667 10.3973C30.7154 9.69385 31.3354 8.56257 31.3354 7.29126C31.3354 5.174 29.623 3.44075 27.5186 3.44075C25.4142 3.44075 23.7017 5.174 23.7017 7.29126C23.7017 8.56185 24.3215 9.69254 25.2694 10.3961C24.643 10.6267 24.0629 10.9487 23.5432 11.3489C22.605 10.139 21.3269 9.21343 19.8479 8.71859C21.0722 7.9058 21.8835 6.51137 21.8835 4.9321C21.8835 2.43568 19.8587 0.393494 17.3729 0.393494H17.3728ZM17.3728 1.54504C19.232 1.54504 20.7307 3.0539 20.7307 4.9321C20.7307 6.79564 19.2553 8.28982 17.4167 8.31377C17.4021 8.31377 17.3877 8.31172 17.3728 8.31172C17.3579 8.31172 17.3437 8.31377 17.3288 8.31377C15.4902 8.29012 14.0158 6.7957 14.0158 4.9321C14.0158 3.05363 15.5133 1.54504 17.3725 1.54504H17.3728ZM7.22796 4.5925C8.70312 4.5925 9.89323 5.78978 9.89323 7.29146C9.89323 8.78308 8.71852 9.97523 7.25724 9.99141C7.24747 9.99141 7.23796 9.99039 7.22794 9.99039C7.21817 9.99039 7.20866 9.99141 7.19864 9.99141C5.73735 9.97522 4.56264 8.78281 4.56264 7.29146C4.56264 5.78984 5.75275 4.5925 7.22792 4.5925H7.22796ZM27.5182 4.5925C28.9934 4.5925 30.1835 5.78978 30.1835 7.29146C30.1835 8.78308 29.0088 9.97523 27.5475 9.99141C27.5377 9.99141 27.5282 9.99039 27.5182 9.99039C27.5084 9.99039 27.4989 9.99141 27.4889 9.99141C26.0276 9.97522 24.8529 8.78281 24.8529 7.29146C24.8529 5.78984 26.043 4.5925 27.5182 4.5925H27.5182ZM17.3287 9.46525C17.3433 9.46551 17.3577 9.46731 17.3726 9.46731C17.3873 9.46731 17.4017 9.46525 17.4166 9.46525C21.1038 9.4889 24.0548 12.4652 24.0548 16.191L24.0545 18.0396H10.6913V16.191C10.6913 12.4649 13.6414 9.48894 17.3282 9.46525H17.3287ZM7.18387 11.1443C7.19852 11.1445 7.21292 11.1463 7.22782 11.1463C7.24273 11.1463 7.25687 11.1443 7.27178 11.1443C8.51894 11.1543 9.65713 11.5843 10.5634 12.3038C9.91491 13.4513 9.53987 14.7757 9.53987 16.1913V18.0355H1.82516V16.6072C1.82516 13.5792 4.2059 11.1679 7.18373 11.144L7.18387 11.1443ZM27.4741 11.1443C27.489 11.1445 27.5032 11.1463 27.5181 11.1463C27.533 11.1463 27.5471 11.1443 27.562 11.1443C30.5399 11.1679 32.9206 13.5795 32.9206 16.6074V18.0355H25.202L25.2017 16.1913C25.2017 14.7765 24.8277 13.453 24.1805 12.3058C25.087 11.5854 26.226 11.1543 27.4742 11.1443H27.4741Z" fill="#103E13"/>
</svg>
