<svg width="29" height="29" viewBox="0 0 29 29" fill="none" xmlns="http://www.w3.org/2000/svg">
<path fill-rule="evenodd" clip-rule="evenodd" d="M7.65271 0.900696C11.497 0.900696 14.6134 4.0171 14.6134 7.86139V0.900696H21.5741C25.4184 0.900696 28.5348 4.0171 28.5348 7.86139C28.5348 11.7056 25.4184 14.8221 21.5741 14.8221C25.4184 14.8221 28.5348 17.9385 28.5348 21.7828C28.5348 23.6916 27.7664 25.421 26.5221 26.6785L26.4961 26.7048L26.473 26.7277C25.2152 27.9738 23.4845 28.7435 21.5741 28.7435C19.6767 28.7435 17.9566 27.9843 16.7009 26.7531C16.6846 26.7371 16.6683 26.7209 16.6521 26.7048C16.6369 26.6895 16.6217 26.6742 16.6066 26.6588C15.3738 25.403 14.6134 23.6817 14.6134 21.7828C14.6134 25.627 11.497 28.7435 7.65271 28.7435C3.80842 28.7435 0.692017 25.627 0.692017 21.7828V14.8221H7.65271C3.80842 14.8221 0.692017 11.7056 0.692017 7.86139C0.692017 4.0171 3.80842 0.900696 7.65271 0.900696ZM13.2213 7.86139C13.2213 10.9368 10.7282 13.4299 7.65271 13.4299V2.29283C10.7282 2.29283 13.2213 4.78596 13.2213 7.86139ZM27.1427 21.7828C27.1427 18.7073 24.6495 16.2142 21.5741 16.2142C18.4987 16.2142 16.0055 18.7073 16.0055 21.7828H27.1427ZM2.08416 16.2142V21.7828C2.08416 24.8582 4.57728 27.3513 7.65271 27.3513C10.7282 27.3513 13.2213 24.8582 13.2213 21.7828V16.2142H2.08416ZM16.0055 13.4299V2.29283H21.5741C24.6495 2.29283 27.1427 4.78596 27.1427 7.86139C27.1427 10.9368 24.6495 13.4299 21.5741 13.4299H16.0055Z" fill="#5417D7"/>
</svg>
