<svg width="37" height="14" viewBox="0 0 37 14" fill="none" xmlns="http://www.w3.org/2000/svg">
<g clip-path="url(#clip0_211_2077)">
<path d="M8.81751 0.00396729C7.40398 0.00396729 6.04836 0.565487 5.04885 1.565L1.78686 4.82699C0.787349 5.8265 0.22583 7.18211 0.22583 8.59565C0.22583 11.5392 2.61202 13.9254 5.55554 13.9254C6.96907 13.9254 8.32469 13.3638 9.3242 12.3643L11.5805 10.108C11.5805 10.1079 11.5806 10.108 11.5805 10.108L18.1547 3.53378C18.6321 3.05642 19.2795 2.78825 19.9546 2.78825C21.0849 2.78825 22.0431 3.52488 22.3753 4.54423L24.4501 2.46943C23.5036 0.986975 21.8439 0.00396729 19.9546 0.00396729C18.5411 0.00396729 17.1855 0.565487 16.186 1.565L7.35544 10.3955C6.87807 10.8729 6.23064 11.1411 5.55554 11.1411C4.14973 11.1411 3.01011 10.0015 3.01011 8.59565C3.01011 7.92055 3.27828 7.27311 3.75564 6.79575L7.01761 3.53378C7.49498 3.05642 8.14241 2.78825 8.81751 2.78825C9.94779 2.78825 10.9059 3.52491 11.2382 4.54429L13.313 2.46948C12.3665 0.987003 10.7068 0.00396729 8.81751 0.00396729Z" fill="#394149"/>
<path d="M18.4925 10.3955C18.0152 10.8729 17.3677 11.1411 16.6926 11.1411C15.5626 11.1411 14.6044 10.4046 14.2721 9.38545L12.1974 11.4602C13.1439 12.9425 14.8035 13.9254 16.6926 13.9254C18.1062 13.9254 19.4618 13.3638 20.4613 12.3643L29.2918 3.53378C29.7692 3.05642 30.4166 2.78825 31.0917 2.78825C32.4976 2.78825 33.6372 3.92787 33.6372 5.33368C33.6372 6.00877 33.369 6.65621 32.8916 7.13358L29.6297 10.3955C29.1523 10.8729 28.5049 11.1411 27.8298 11.1411C26.6996 11.1411 25.7414 10.4045 25.4092 9.38522L23.3344 11.46C24.2809 12.9424 25.9405 13.9254 27.8298 13.9254C29.2433 13.9254 30.5989 13.3638 31.5984 12.3643L34.8604 9.10234C35.8599 8.10283 36.4214 6.74721 36.4214 5.33368C36.4214 2.39016 34.0353 0.00396729 31.0917 0.00396729C29.6782 0.00396729 28.3226 0.565487 27.3231 1.565L18.4925 10.3955Z" fill="#394149"/>
</g>
<defs>
<clipPath id="clip0_211_2077">
<rect width="36.1956" height="13.9214" fill="white" transform="translate(0.22583 0.00396729)"/>
</clipPath>
</defs>
</svg>
