<svg width="39" height="22" viewBox="0 0 39 22" fill="none" xmlns="http://www.w3.org/2000/svg">
<path d="M38.5803 7.95044C38.5843 7.92141 38.5843 7.89207 38.5803 7.86305C38.5841 7.8394 38.5841 7.81528 38.5803 7.79158L38.2967 5.75025C38.2558 5.50603 38.1463 5.27777 37.9807 5.09099L37.9321 5.03539L37.843 4.94801L32.9332 0.801822L33.0709 0.936862C32.9582 0.80469 32.8168 0.69897 32.657 0.62749C32.4971 0.556009 32.323 0.520584 32.1473 0.523828H30.6565C30.4141 0.519119 30.1772 0.594679 29.9841 0.738289C29.7812 0.595544 29.537 0.520371 29.2873 0.523828H27.7965C27.601 0.520718 27.4082 0.56829 27.2374 0.66174C27.0667 0.755191 26.9242 0.891202 26.8243 1.056C26.6703 1.29138 26.6125 1.57497 26.6623 1.85029L26.8486 3.13703C26.7252 3.06843 26.5854 3.03283 26.4435 3.03379H19.2247C18.9657 3.03538 18.7126 3.1098 18.4955 3.24824C18.2855 3.37709 18.1169 3.56159 18.0094 3.78041L17.4503 3.31178C17.2303 3.1122 16.9399 3.00402 16.6401 3.00996H5.3136C5.05368 3.0146 4.79953 3.08578 4.57634 3.21647C4.271 3.39168 4.04722 3.67657 3.95248 4.01076L0.355205 15.806C0.287991 16.0003 0.28138 16.2099 0.336216 16.408C0.391053 16.606 0.504855 16.7836 0.663083 16.918C0.704313 16.9522 0.747604 16.9841 0.792718 17.0133C0.792718 17.0133 0.719788 16.9656 0.679278 16.9259L5.58909 21.08C5.79678 21.2675 6.06833 21.3723 6.35062 21.3739H17.7663C18.027 21.3673 18.2813 21.2933 18.5036 21.1595C18.6293 21.0921 18.7418 21.0034 18.8358 20.8973L18.8763 20.8417L18.9411 20.7623L18.9897 20.6749L19.5245 21.1277C19.7292 21.3077 19.9948 21.4067 20.2698 21.4057H31.7098C31.9702 21.3972 32.2241 21.3234 32.4471 21.1912C32.5699 21.1198 32.6818 21.0315 32.7793 20.9291L32.8197 20.8735L32.8846 20.7941C32.919 20.7438 32.9489 20.6907 32.9737 20.6352C33.0001 20.5871 33.0218 20.5365 33.0385 20.4843L36.3198 9.71377V9.61845C36.3238 9.58149 36.3238 9.54421 36.3198 9.50725V9.43578C36.3237 9.41208 36.3237 9.38796 36.3198 9.36426C36.3235 9.31404 36.3235 9.26361 36.3198 9.21333H37.3731C37.4647 9.22158 37.5569 9.22158 37.6485 9.21333H37.7215C37.7807 9.196 37.8378 9.17199 37.8916 9.14187H37.9726L38.1184 9.03067L38.1833 8.983L38.2967 8.84001V8.7924L38.3777 8.65735C38.3732 8.63109 38.3732 8.6042 38.3777 8.57794C38.3734 8.56505 38.3734 8.55111 38.3777 8.53822C38.3949 8.49165 38.4085 8.44383 38.4182 8.39523C38.4144 8.37957 38.4144 8.36322 38.4182 8.34756C38.4143 8.32391 38.4143 8.29974 38.4182 8.27609C38.4182 8.27609 38.5803 7.96631 38.5803 7.95044Z" fill="black"/>
</svg>
