<svg width="29" height="20" viewBox="0 0 29 20" fill="none" xmlns="http://www.w3.org/2000/svg">
<path d="M9.83839 19.7096H12.7267L11.8858 18.8791C11.6628 18.6588 11.3604 18.535 11.045 18.535H9.83839C5.24126 18.535 1.51456 14.8538 1.51456 10.3127C1.51456 5.77164 5.24126 2.09039 9.83839 2.09039H19.3513C23.9485 2.09039 27.6752 5.77164 27.6752 10.3127C27.6752 14.8538 23.9485 18.535 19.3513 18.535H15.7927C15.3197 18.535 14.866 18.3494 14.5315 18.019L13.5464 17.0459C12.9889 16.4952 12.2327 16.1858 11.4443 16.1858H9.83839C6.55471 16.1858 3.8928 13.5563 3.8928 10.3127C3.8928 7.06907 6.55471 4.43962 9.83839 4.43962H19.3513C22.635 4.43962 25.2969 7.06907 25.2969 10.3127C25.2969 13.5563 22.635 16.1858 19.3513 16.1858H17.0664C16.5933 16.1858 16.1396 16.0002 15.8051 15.6698L14.82 14.6967C14.2625 14.146 13.5063 13.8366 12.7179 13.8366H9.83839C7.86821 13.8366 6.27103 12.2589 6.27103 10.3127C6.27103 8.36656 7.86821 6.78886 9.83839 6.78886H19.3513C21.3215 6.78886 22.9187 8.36656 22.9187 10.3127C22.9187 12.2351 21.3602 13.798 19.4233 13.8359L19.4229 13.8366H18.5528C18.0797 13.8366 17.626 13.6509 17.2915 13.3205L16.3064 12.3474C15.849 11.8955 15.2578 11.6062 14.6247 11.5168L14.5949 11.4873H9.83839C9.18166 11.4873 8.64927 10.9614 8.64927 10.3127C8.64927 9.66399 9.18166 9.13809 9.83839 9.13809H19.3513C20.0081 9.13809 20.5405 9.66399 20.5405 10.3127C20.5405 10.9614 20.0081 11.4873 19.3513 11.4873H16.9731L17.814 12.3179C18.0369 12.5382 18.3394 12.6619 18.6548 12.6619H19.3513C20.6648 12.6619 21.7296 11.6101 21.7296 10.3127C21.7296 9.01527 20.6648 7.96347 19.3513 7.96347H9.83839C8.52494 7.96347 7.46015 9.01527 7.46015 10.3127C7.46015 11.6101 8.52494 12.6619 9.83839 12.6619H14.2043C14.6774 12.6619 15.1311 12.8476 15.4656 13.178L16.4507 14.1511C17.0082 14.7018 17.7643 15.0112 18.5528 15.0112H19.6486V15.0022C22.1371 14.8506 24.1078 12.809 24.1078 10.3127C24.1078 7.71784 21.9782 5.61424 19.3513 5.61424H9.83839C7.21148 5.61424 5.08191 7.71784 5.08191 10.3127C5.08191 12.9076 7.21148 15.0112 9.83839 15.0112H12.7179C13.191 15.0112 13.6447 15.1968 13.9792 15.5272L14.9643 16.5003C15.5218 17.051 16.2779 17.3604 17.0664 17.3604H19.3513C23.2917 17.3604 26.4861 14.2051 26.4861 10.3127C26.4861 6.42036 23.2917 3.26501 19.3513 3.26501H9.83839C5.89798 3.26501 2.70368 6.42036 2.70368 10.3127C2.70368 14.2051 5.89798 17.3604 9.83839 17.3604H11.4443C11.9173 17.3604 12.371 17.546 12.7055 17.8764L13.6907 18.8495C14.2482 19.4003 15.0043 19.7096 15.7927 19.7096H19.3513C24.6052 19.7096 28.8643 15.5025 28.8643 10.3127C28.8643 5.12292 24.6052 0.915771 19.3513 0.915771L9.83839 0.915773C4.58453 0.915774 0.325439 5.12293 0.325439 10.3127C0.32544 15.5025 4.58453 19.7096 9.83839 19.7096Z" fill="#212326"/>
</svg>
